<mxfile host="app.diagrams.net" modified="2024-07-02T14:42:13.358Z" agent="Mozilla/5.0 (Windows NT 10.0; Win64; x64) AppleWebKit/537.36 (KHTML, like Gecko) Chrome/126.0.0.0 Safari/537.36" version="24.3.1" etag="OaQ54Ivi9p4IRCSS8l1c" type="github">
  <diagram name="Page-1" id="Jq-vjfMtjSBfaxpTArAJ">
    <mxGraphModel>
      <root>
        <mxCell id="0" />
        <mxCell id="1" parent="0" />
      </root>
    </mxGraphModel>
  </diagram>
</mxfile>
